<?xml version="1.0" standalone="no"?>
<!DOCTYPE svg PUBLIC "-//W3C//DTD SVG 20010904//EN"
 "http://www.w3.org/TR/2001/REC-SVG-20010904/DTD/svg10.dtd">
<svg version="1.0" xmlns="http://www.w3.org/2000/svg"
 width="900.000000pt" height="816.000000pt" viewBox="0 0 900.000000 816.000000"
 preserveAspectRatio="xMidYMid meet">
<metadata>
Created by potrace 1.10, written by Peter Selinger 2001-2011
</metadata>
<g transform="translate(0.000000,816.000000) scale(0.100000,-0.100000)"
fill="#ffffff" stroke="none">
<path d="M3295 6603 c-101 -9 -202 -27 -215 -38 -8 -6 -36 -22 -61 -34 -25
-11 -60 -33 -77 -49 -18 -15 -44 -35 -58 -46 -14 -10 -51 -53 -82 -95 -32 -42
-67 -86 -80 -99 -12 -12 -22 -29 -22 -37 0 -8 -13 -34 -30 -57 -16 -22 -30
-47 -30 -54 0 -8 -11 -46 -24 -86 -49 -147 -71 -305 -68 -503 1 -99 7 -202 13
-230 6 -27 12 -70 13 -95 1 -27 12 -63 28 -90 14 -25 31 -70 38 -100 7 -30 18
-58 25 -62 6 -4 18 -26 25 -50 12 -36 108 -162 154 -203 6 -5 19 -22 29 -37
10 -16 24 -28 32 -28 8 0 22 -11 31 -25 9 -14 28 -28 43 -31 14 -4 46 -17 71
-29 25 -13 65 -29 90 -36 64 -17 256 -23 292 -8 16 6 45 13 64 14 19 1 47 11
62 22 15 11 47 29 72 40 59 26 183 149 244 240 26 40 51 75 57 78 5 4 9 15 9
25 0 10 7 25 15 33 17 18 45 93 45 123 0 12 7 27 15 34 9 8 13 21 9 32 -4 13
1 26 15 39 17 16 19 27 14 68 -3 28 0 64 7 86 16 48 16 299 1 418 -7 49 -9 97
-6 107 3 10 -2 25 -11 35 -16 16 -25 45 -43 143 -4 24 -17 55 -28 70 -11 15
-29 48 -41 74 -30 69 -92 155 -163 228 -102 104 -145 140 -166 140 -11 0 -37
11 -57 25 -20 14 -50 25 -65 25 -15 0 -41 4 -57 9 -37 12 -91 18 -129 14z
m186 -120 c19 -9 41 -20 49 -25 8 -4 26 -13 39 -19 32 -13 217 -198 231 -230
6 -13 19 -37 30 -54 11 -16 22 -37 26 -45 3 -8 11 -28 18 -45 33 -75 39 -92
46 -125 5 -19 13 -48 18 -65 29 -84 37 -159 36 -350 0 -198 -14 -318 -42 -372
-7 -12 -12 -31 -12 -42 0 -10 -6 -32 -14 -48 -12 -25 -32 -70 -50 -113 -18
-43 -93 -149 -138 -198 -44 -47 -110 -103 -138 -115 -8 -4 -22 -11 -30 -16
-47 -26 -83 -40 -157 -56 -80 -18 -86 -18 -165 -1 -46 10 -99 26 -118 35 -100
47 -203 130 -266 216 -89 122 -165 309 -184 455 -5 36 -13 85 -19 110 -14 58
-14 208 -1 285 6 33 15 89 20 125 10 78 28 146 46 182 8 14 14 32 14 39 0 12
57 131 83 174 100 163 264 294 397 316 73 12 243 2 281 -18z"/>
<path d="M3259 6353 c-33 -5 -81 -56 -101 -108 -50 -127 -74 -433 -64 -825 9
-395 22 -506 68 -607 37 -82 110 -117 191 -93 87 25 129 110 147 295 5 50 14
133 19 185 13 122 13 525 0 655 -5 55 -14 141 -19 190 -20 202 -75 300 -170
309 -25 2 -57 2 -71 -1z m86 -155 c4 -13 16 -33 27 -45 41 -44 47 -127 45
-643 l-2 -485 -40 -92 c-21 -51 -45 -93 -52 -93 -7 0 -20 8 -30 18 -10 11 -25
21 -34 24 -24 9 -49 112 -44 186 3 48 1 62 -9 62 -12 0 -13 68 -11 403 2 222
8 429 14 462 6 33 15 91 22 128 10 62 14 69 43 82 45 20 64 18 71 -7z"/>
<path d="M2061 6580 c-18 -4 -46 -17 -62 -29 -15 -12 -35 -21 -44 -21 -8 0
-27 -13 -41 -29 -14 -16 -38 -32 -52 -36 -14 -3 -32 -15 -39 -25 -7 -10 -29
-24 -49 -30 -20 -7 -53 -23 -72 -36 -20 -14 -47 -27 -61 -30 -54 -11 -108 -40
-153 -83 -46 -42 -48 -46 -48 -98 0 -53 1 -55 58 -109 54 -53 59 -56 98 -50
36 5 44 2 69 -24 15 -16 32 -27 37 -24 17 11 27 -50 22 -139 -3 -50 -6 -227
-7 -392 -1 -165 -6 -305 -10 -312 -4 -6 -4 -14 1 -17 12 -7 14 -183 2 -191 -5
-3 -10 -15 -10 -25 0 -10 -15 -35 -34 -54 -27 -30 -40 -36 -73 -36 -35 0 -47
-7 -96 -57 -61 -60 -70 -89 -44 -144 14 -31 63 -74 98 -87 13 -5 227 -8 474
-7 443 1 451 1 485 23 54 32 80 74 80 125 0 38 -5 48 -45 87 -43 42 -98 70
-141 70 -12 0 -36 16 -52 35 -34 38 -48 98 -40 170 3 24 1 48 -5 54 -7 7 -7
18 2 35 10 18 11 36 3 73 -11 54 -10 199 2 226 5 10 4 23 -2 30 -10 12 -9 103
2 114 10 10 7 91 -4 98 -14 9 -13 98 2 113 9 9 8 17 -2 37 -11 20 -11 29 -1
49 8 13 10 29 6 36 -12 19 -14 104 -3 117 7 9 7 40 0 95 -13 112 -14 189 0
205 7 9 7 21 -2 42 -6 16 -10 40 -9 53 5 39 -30 123 -65 157 -46 44 -103 58
-175 41z m97 -77 l52 -6 0 -871 c0 -479 0 -877 0 -883 0 -8 15 -13 43 -13 23
0 64 -7 91 -15 27 -8 69 -15 93 -15 69 0 83 -12 83 -70 0 -28 -4 -50 -10 -50
-5 0 -228 0 -495 0 -267 0 -489 0 -495 0 -12 0 -13 80 -1 98 5 8 39 17 82 22
41 5 87 13 102 19 16 6 48 11 73 11 l44 0 0 690 0 690 -127 -6 c-71 -3 -134
-7 -140 -10 -7 -2 -20 -1 -28 2 -19 8 -21 107 -2 122 6 5 35 12 62 14 124 12
346 128 450 235 44 45 45 46 123 36z"/>
<path d="M3036 3509 l-118 -7 -42 -41 c-22 -22 -48 -55 -57 -73 -21 -41 -51
-141 -53 -176 -3 -30 -26 -112 -36 -127 -14 -19 -21 -164 -11 -203 21 -78 103
-119 183 -93 36 12 104 95 145 176 11 22 28 56 38 75 10 19 21 41 25 49 3 8
15 19 25 25 10 6 30 23 43 39 17 19 33 27 57 27 19 0 36 -4 40 -10 4 -6 15 -6
31 0 28 11 141 11 189 1 27 -5 30 -11 33 -47 3 -35 -3 -48 -33 -83 -19 -24
-35 -48 -35 -55 0 -7 -13 -30 -30 -52 -16 -21 -30 -47 -30 -56 0 -9 -6 -21
-14 -25 -8 -4 -35 -48 -61 -98 -26 -49 -69 -117 -95 -149 -27 -33 -52 -71 -55
-85 -4 -14 -20 -40 -36 -58 -16 -19 -29 -40 -29 -48 0 -7 -11 -27 -25 -43 -14
-17 -25 -33 -25 -37 0 -4 -29 -51 -64 -104 -35 -53 -70 -111 -77 -128 -8 -18
-18 -33 -22 -33 -4 0 -15 -17 -24 -37 -20 -49 -93 -163 -104 -163 -5 0 -9 -9
-9 -19 0 -10 -13 -33 -30 -51 -16 -18 -30 -39 -30 -47 0 -7 -9 -33 -20 -56
-12 -23 -24 -69 -27 -103 -5 -58 -4 -62 27 -98 42 -48 71 -62 145 -70 33 -4
353 -7 712 -6 543 0 657 3 685 15 56 24 115 88 128 136 6 24 18 60 27 81 8 20
12 41 9 47 -4 6 2 42 14 79 11 38 20 79 20 92 0 12 8 37 18 54 13 23 19 56 21
121 2 80 0 94 -21 125 -13 20 -43 45 -71 58 l-47 22 -39 -19 c-38 -20 -91 -73
-91 -92 0 -5 -11 -14 -25 -19 -20 -8 -25 -16 -25 -44 0 -24 -7 -39 -20 -49
-12 -8 -18 -21 -15 -29 3 -8 -1 -21 -10 -28 -8 -7 -15 -16 -15 -20 0 -18 -102
-160 -115 -160 -7 0 -15 -7 -18 -14 -8 -20 -73 -32 -91 -17 -8 7 -17 8 -19 4
-9 -14 -277 -16 -293 -2 -20 17 -17 49 9 88 29 45 70 115 98 169 13 23 27 42
31 42 4 0 21 27 38 59 16 33 35 63 41 66 6 4 19 26 30 49 11 22 29 57 42 77
12 19 31 50 42 69 11 18 30 45 43 60 12 15 22 34 22 40 0 7 16 32 35 56 19 23
35 45 35 48 0 4 18 33 40 65 22 32 40 66 40 75 0 9 4 16 8 16 5 0 17 18 27 40
10 23 24 44 30 48 7 4 22 26 33 48 12 23 41 70 64 105 24 35 53 82 64 104 11
22 32 60 48 84 16 24 36 67 46 95 15 45 20 51 48 54 19 2 38 -3 50 -15 10 -10
47 -43 82 -73 34 -30 69 -61 76 -68 10 -10 14 -47 16 -140 1 -70 1 -136 1
-147 -1 -11 -1 -204 0 -430 1 -456 -1 -629 -8 -662 -3 -12 -22 -32 -42 -44
-21 -13 -57 -44 -80 -69 -69 -73 -70 -140 -2 -206 l40 -39 372 0 c205 0 389 4
409 8 25 5 55 25 89 58 l52 50 51 -49 c44 -43 60 -52 111 -62 82 -16 487 -9
533 9 37 15 86 80 95 127 5 27 -1 38 -61 101 -37 38 -75 72 -84 76 -9 3 -25
18 -35 34 -16 25 -18 59 -21 363 -3 394 3 520 25 520 23 0 81 -55 121 -113 19
-29 48 -66 66 -84 17 -17 60 -70 96 -118 36 -47 92 -118 125 -157 33 -39 74
-89 92 -112 17 -23 43 -55 57 -72 14 -18 26 -36 26 -42 0 -5 11 -17 25 -26 14
-9 25 -21 25 -28 0 -6 24 -38 53 -72 30 -34 60 -72 67 -86 7 -14 19 -32 26
-40 7 -8 28 -31 46 -52 18 -20 49 -59 68 -87 19 -28 39 -51 44 -51 4 0 26 -18
47 -40 54 -56 107 -80 174 -80 31 0 70 6 89 14 47 20 94 81 106 140 7 34 9
309 6 811 -3 489 -1 766 5 777 6 11 21 23 35 28 13 5 29 21 34 34 5 14 27 34
49 45 21 11 48 36 60 54 32 53 27 87 -20 140 -45 52 -87 68 -166 67 -27 -1
-118 -1 -203 -1 -229 1 -272 -8 -323 -68 -32 -38 -42 -83 -27 -113 14 -26 127
-138 140 -138 5 0 18 -12 29 -26 20 -25 21 -37 19 -296 -2 -148 -6 -272 -11
-275 -10 -6 -139 122 -157 157 -7 14 -22 31 -32 38 -10 7 -25 29 -33 48 -8 19
-20 34 -28 34 -14 0 -97 99 -97 115 0 4 -9 17 -20 29 -50 52 -80 90 -80 100 0
6 -11 22 -25 36 -14 14 -48 53 -76 88 -28 34 -55 62 -60 62 -6 0 -15 13 -20
30 -9 25 -74 86 -160 152 -12 10 -41 20 -63 23 -34 4 -528 1 -591 -4 -27 -3
-78 -36 -124 -81 l-39 -39 -23 32 c-12 18 -38 46 -57 62 l-35 30 -371 -1
c-204 0 -387 -4 -406 -9 -20 -4 -53 -26 -77 -51 -51 -51 -107 -63 -126 -28
-14 24 -60 65 -96 84 -18 9 -87 12 -260 12 -336 -1 -733 -1 -821 1 -41 1 -128
-1 -194 -4z m1309 -154 c0 -35 -5 -59 -14 -64 -12 -8 -30 -35 -47 -71 -4 -8
-10 -17 -14 -20 -3 -3 -26 -38 -50 -78 -25 -40 -53 -85 -63 -100 -9 -15 -20
-35 -23 -44 -4 -10 -10 -18 -14 -18 -5 0 -12 -9 -15 -21 -4 -11 -25 -48 -48
-83 -58 -86 -66 -98 -77 -121 -6 -11 -18 -32 -28 -47 -9 -14 -44 -70 -77 -123
-33 -53 -68 -108 -77 -123 -10 -15 -22 -36 -28 -47 -13 -27 -34 -59 -41 -65
-3 -3 -26 -38 -50 -78 -24 -40 -52 -85 -61 -100 -10 -15 -22 -36 -28 -47 -16
-31 -31 -55 -76 -120 -22 -34 -43 -67 -47 -75 -4 -8 -16 -28 -27 -45 -11 -16
-23 -37 -27 -45 -3 -8 -26 -41 -50 -72 -23 -31 -44 -67 -45 -80 -3 -20 1 -23
27 -20 17 2 175 5 352 7 177 1 326 6 332 9 6 4 11 11 11 16 0 4 20 39 45 77
41 61 118 209 150 288 7 17 18 41 23 55 6 14 14 35 17 48 6 21 12 23 63 20 65
-3 74 -17 48 -73 -9 -18 -16 -43 -16 -55 0 -12 -5 -31 -12 -43 -6 -12 -15 -42
-19 -67 -9 -51 -24 -114 -45 -180 -8 -25 -14 -58 -14 -73 0 -16 -5 -38 -11
-49 -6 -11 -14 -40 -18 -65 l-6 -44 -760 0 -760 0 -3 32 c-4 35 7 60 54 129
16 25 33 52 37 60 4 8 16 29 27 45 11 17 23 38 26 48 4 9 10 17 14 17 5 0 12
9 15 21 4 11 26 48 49 82 23 34 45 69 49 77 4 8 16 29 27 45 11 17 24 39 30
50 6 11 18 32 28 46 9 15 37 59 62 98 25 40 53 84 62 99 10 15 22 36 28 47 6
11 19 34 30 50 11 17 23 37 27 45 4 8 25 41 48 75 23 33 44 67 48 75 4 8 16
29 27 45 11 17 24 39 30 50 6 11 19 34 30 50 11 17 23 37 27 45 3 8 9 17 13
20 4 3 27 38 51 78 24 40 52 85 61 100 10 15 21 34 25 42 4 8 25 41 47 74 59
86 76 115 68 118 -4 2 -157 2 -340 0 l-332 -3 -25 -52 c-14 -29 -30 -59 -35
-67 -5 -8 -11 -22 -14 -30 -3 -8 -10 -22 -15 -30 -5 -8 -12 -22 -15 -30 -3 -8
-10 -22 -15 -30 -8 -14 -20 -40 -55 -122 -9 -20 -16 -45 -16 -57 0 -19 -6 -21
-60 -21 l-60 0 0 33 c0 18 5 38 10 43 6 6 15 33 20 60 8 46 13 68 41 177 6 23
14 62 19 87 9 46 30 147 35 165 2 7 249 9 721 8 l719 -2 0 -56z m1082 17 c1
-22 -4 -45 -10 -50 -14 -11 -59 -21 -142 -30 l-60 -7 0 -815 0 -815 50 -8
c141 -23 160 -34 160 -87 l0 -42 -425 -1 -425 0 0 48 0 48 45 13 c25 8 61 14
80 14 19 0 46 6 59 13 l24 12 1 803 c1 526 -2 806 -9 810 -5 4 -35 10 -65 14
-128 16 -135 19 -138 62 -2 21 -1 43 1 50 3 8 118 11 428 10 l424 -2 2 -40z
m880 18 c7 -10 19 -25 26 -32 7 -7 42 -50 77 -96 127 -163 161 -207 169 -212
4 -3 29 -34 56 -70 26 -36 53 -69 59 -75 7 -5 40 -46 74 -90 34 -44 89 -114
122 -155 33 -41 88 -111 122 -155 34 -44 67 -84 74 -90 6 -5 35 -45 63 -87 51
-77 65 -90 72 -65 2 6 2 239 -1 517 l-5 505 -45 3 c-25 1 -63 6 -85 12 -22 5
-53 12 -68 15 -26 5 -28 8 -25 52 l3 47 310 0 310 0 3 -38 c5 -60 -9 -68 -163
-85 l-60 -6 0 -900 0 -900 -85 2 c-47 1 -88 2 -91 2 -4 1 -39 45 -79 99 -40
53 -78 102 -84 107 -6 6 -34 39 -60 75 -27 36 -54 70 -60 75 -7 6 -34 39 -60
75 -27 36 -54 70 -60 75 -6 6 -40 48 -76 95 -36 47 -72 92 -80 101 -8 9 -46
58 -85 109 -38 51 -77 100 -85 109 -8 9 -37 45 -64 81 -27 36 -54 70 -60 75
-7 6 -34 39 -60 75 -27 36 -54 70 -61 75 -6 6 -53 66 -103 135 -123 167 -125
170 -141 170 -10 0 -11 -10 -6 -42 4 -24 9 -331 11 -682 2 -508 6 -641 16
-648 7 -4 33 -8 58 -8 46 -1 134 -20 146 -33 4 -3 8 -19 10 -34 7 -61 23 -58
-318 -57 l-313 0 -3 47 c-3 44 -1 47 25 53 15 3 41 10 57 15 16 5 49 9 73 9
24 0 53 5 64 10 19 10 19 30 19 813 0 611 -3 806 -12 815 -7 7 -33 12 -60 12
-26 0 -57 4 -70 9 -13 6 -40 12 -60 16 -37 6 -38 7 -38 49 0 23 2 45 4 47 3 2
159 3 347 1 325 -2 343 -3 356 -22z m-730 -107 c24 -21 68 -61 98 -89 l53 -50
3 -130 c2 -135 3 -921 0 -1107 -1 -113 -16 -167 -47 -167 -9 0 -43 -26 -77
-57 -34 -32 -73 -64 -86 -71 -21 -12 -25 -11 -39 9 -9 13 -25 32 -36 43 -12
11 -25 29 -31 40 -5 11 -21 20 -34 21 -13 1 -35 14 -48 29 -21 25 -23 37 -25
154 -1 70 -1 136 0 147 0 11 2 29 2 40 1 11 1 178 1 370 0 193 0 423 0 511 l0
162 29 38 c31 42 156 142 179 143 8 1 34 -16 58 -36z"/>
</g>
</svg>
